G04*
G04 #@! TF.GenerationSoftware,Altium Limited,Altium Designer,21.9.2 (33)*
G04*
G04 Layer_Color=32768*
%FSLAX25Y25*%
%MOIN*%
G70*
G04*
G04 #@! TF.SameCoordinates,6F936C73-BDDA-4E7B-AE90-99827B4021A3*
G04*
G04*
G04 #@! TF.FilePolarity,Positive*
G04*
G01*
G75*
%ADD10C,0.00600*%
%ADD36C,0.00500*%
%ADD37C,0.00394*%
G36*
X177520Y42323D02*
X153917D01*
Y37750D01*
X159850D01*
Y24250D01*
X153917D01*
Y-4685D01*
X19311D01*
Y42285D01*
X18684D01*
Y45457D01*
X17361D01*
Y44760D01*
X13399D01*
Y43800D01*
X7398D01*
Y31163D01*
X476D01*
Y43837D01*
X5499D01*
Y44760D01*
X1537D01*
Y56240D01*
X5499D01*
Y57200D01*
X13399D01*
Y56240D01*
X17361D01*
Y54543D01*
X18684D01*
Y57715D01*
X22261D01*
Y54543D01*
X24100D01*
Y72305D01*
X26650D01*
Y86505D01*
X50350D01*
Y72305D01*
X55150D01*
Y86505D01*
X78850D01*
Y72305D01*
X81400D01*
Y45805D01*
X78850D01*
Y44291D01*
X82323D01*
Y91299D01*
X177520D01*
Y42323D01*
D02*
G37*
G36*
X13789Y40543D02*
X15756D01*
Y31457D01*
X13789D01*
Y28285D01*
X10211D01*
Y31457D01*
X8244D01*
Y40543D01*
X10211D01*
Y43715D01*
X13789D01*
Y40543D01*
D02*
G37*
%LPC*%
G36*
X55150Y45805D02*
X50350D01*
Y44291D01*
X55150D01*
Y45805D01*
D02*
G37*
G36*
X26650D02*
X24228D01*
Y45457D01*
X22261D01*
Y44291D01*
X26650D01*
Y45805D01*
D02*
G37*
%LPD*%
D10*
X50350Y72305D02*
X52900D01*
X50350D02*
Y86505D01*
X26650D02*
X50350D01*
X26650Y72305D02*
Y86505D01*
X24100Y72305D02*
X26650D01*
X24100Y45805D02*
Y72305D01*
Y45805D02*
X26650D01*
Y39705D02*
Y45805D01*
Y39705D02*
X50350D01*
Y45805D01*
X52900D01*
Y72305D01*
X81400Y45805D02*
Y72305D01*
X78850Y45805D02*
X81400D01*
X78850Y39705D02*
Y45805D01*
X55150Y39705D02*
X78850D01*
X55150D02*
Y45805D01*
X52600D02*
X55150D01*
X52600D02*
Y72305D01*
X55150D01*
Y86505D01*
X78850D01*
Y72305D02*
Y86505D01*
Y72305D02*
X81400D01*
X10211Y43715D02*
X13789D01*
Y40543D02*
Y43715D01*
Y28285D02*
Y31457D01*
X10211Y28285D02*
X13789D01*
X10211D02*
Y31457D01*
Y40543D02*
Y43715D01*
X8244Y40543D02*
X10211D01*
X13789D02*
X15756D01*
Y31457D02*
Y40543D01*
X13789Y31457D02*
X15756D01*
X8244D02*
X10211D01*
X8244D02*
Y40543D01*
X1537Y44760D02*
Y56240D01*
X5499D01*
Y57200D01*
X13399D01*
Y56240D02*
Y57200D01*
Y56240D02*
X17361D01*
Y44760D02*
Y56240D01*
X13399Y44760D02*
X17361D01*
X13399Y43800D02*
Y44760D01*
X5499Y43800D02*
X13399D01*
X5499D02*
Y44760D01*
X1537D02*
X5499D01*
X7398Y31163D02*
Y43837D01*
X476D02*
X7398D01*
X476Y31163D02*
Y43837D01*
Y31163D02*
X7398D01*
X159850Y24250D02*
Y37750D01*
X152150D02*
X159850D01*
X152150Y24250D02*
Y37750D01*
Y24250D02*
X159850D01*
X24228Y45457D02*
Y54543D01*
X22261D02*
X24228D01*
X16716D02*
X18684D01*
X16716Y45457D02*
Y54543D01*
Y45457D02*
X18684D01*
X22261D02*
X24228D01*
X22261Y42285D02*
Y45457D01*
Y54543D02*
Y57715D01*
X18684D02*
X22261D01*
X18684Y54543D02*
Y57715D01*
Y42285D02*
Y45457D01*
Y42285D02*
X22261D01*
D36*
X82323Y42323D02*
X177520D01*
X82323D02*
Y91299D01*
X177520D01*
Y42323D02*
Y91299D01*
X19311Y-4685D02*
Y44291D01*
Y-4685D02*
X90925D01*
Y44291D01*
X19311D02*
X90925D01*
X82303Y-4685D02*
Y44291D01*
Y-4685D02*
X153917D01*
Y44291D01*
X82303D02*
X153917D01*
D37*
X16858Y34831D02*
X20598D01*
X18728Y32961D02*
Y36701D01*
X16563Y30106D02*
Y39555D01*
X20894Y30106D02*
Y39555D01*
X16563Y30106D02*
X20894D01*
X16563Y39555D02*
X20894D01*
X19000Y25130D02*
Y28870D01*
X17130Y27000D02*
X20870D01*
X14276Y24835D02*
X23724D01*
X14276Y29165D02*
X23724D01*
Y24835D02*
Y29165D01*
X14276Y24835D02*
Y29165D01*
X166000Y34630D02*
Y38370D01*
X164130Y36500D02*
X167870D01*
X161276Y38665D02*
X170724D01*
X161276Y34335D02*
X170724D01*
X161276D02*
Y38665D01*
X170724Y34335D02*
Y38665D01*
M02*
