G04*
G04 #@! TF.GenerationSoftware,Altium Limited,Altium Designer,21.9.2 (33)*
G04*
G04 Layer_Color=32768*
%FSLAX25Y25*%
%MOIN*%
G70*
G04*
G04 #@! TF.SameCoordinates,6F936C73-BDDA-4E7B-AE90-99827B4021A3*
G04*
G04*
G04 #@! TF.FilePolarity,Positive*
G04*
G01*
G75*
%ADD12C,0.00300*%
D12*
X181171Y116811D02*
Y111813D01*
X177839Y116811D01*
Y111813D01*
X176173Y116811D02*
Y111813D01*
X173674D01*
X172841Y112646D01*
Y114312D01*
X173674Y115145D01*
X176173D01*
X171175Y111813D02*
X167842D01*
X169508D01*
Y116811D01*
X166176Y111813D02*
Y116811D01*
Y114312D01*
X162844D01*
Y111813D01*
Y116811D01*
X161178Y117644D02*
X157845D01*
X156179Y111813D02*
Y116811D01*
X153680D01*
X152847Y115978D01*
Y112646D01*
X153680Y111813D01*
X156179D01*
X151181Y116811D02*
Y111813D01*
X148682D01*
X147849Y112646D01*
Y114312D01*
X148682Y115145D01*
X151181D01*
X149515D02*
X147849Y116811D01*
X146183Y111813D02*
X144517D01*
X145350D01*
Y116811D01*
X146183D01*
X144517D01*
X142017Y111813D02*
Y116811D01*
X138685D01*
X137019Y111813D02*
Y116811D01*
X133687D01*
X132020Y117644D02*
X128688D01*
X123690Y112646D02*
X124523Y111813D01*
X126189D01*
X127022Y112646D01*
Y113479D01*
X126189Y114312D01*
X124523D01*
X123690Y115145D01*
Y115978D01*
X124523Y116811D01*
X126189D01*
X127022Y115978D01*
X122024Y111813D02*
X120358D01*
X121191D01*
Y116811D01*
X122024D01*
X120358D01*
X117858Y111813D02*
X114526D01*
Y112646D01*
X117858Y115978D01*
Y116811D01*
X114526D01*
X109528Y111813D02*
X112860D01*
Y116811D01*
X109528D01*
X112860Y114312D02*
X111194D01*
X107862Y113479D02*
X107029D01*
Y114312D01*
X107862D01*
Y113479D01*
Y115978D02*
X107029D01*
Y116811D01*
X107862D01*
Y115978D01*
X103696Y117644D02*
X100364D01*
X98698Y112646D02*
X97865Y111813D01*
X96199D01*
X95366Y112646D01*
Y113479D01*
X96199Y114312D01*
X97032D01*
X96199D01*
X95366Y115145D01*
Y115978D01*
X96199Y116811D01*
X97865D01*
X98698Y115978D01*
X93700Y116811D02*
Y115978D01*
X92866D01*
Y116811D01*
X93700D01*
X89534Y112646D02*
X88701Y111813D01*
X87035D01*
X86202Y112646D01*
Y115978D01*
X87035Y116811D01*
X88701D01*
X89534Y115978D01*
Y112646D01*
X84536Y117644D02*
X81204D01*
X79537Y116811D02*
Y111813D01*
X77871Y113479D01*
X76205Y111813D01*
Y116811D01*
X74539D02*
Y111813D01*
X72873Y113479D01*
X71207Y111813D01*
Y116811D01*
X68708Y117644D02*
X67875Y116811D01*
Y115978D01*
X68708D01*
Y116811D01*
X67875D01*
X68708Y117644D01*
X69541Y118477D01*
X64542Y117644D02*
X61210D01*
X59544Y111813D02*
X56212D01*
X57878D01*
Y116811D01*
X52046Y111813D02*
X53712D01*
X54546Y112646D01*
Y115978D01*
X53712Y116811D01*
X52046D01*
X51213Y115978D01*
Y112646D01*
X52046Y111813D01*
X49547D02*
Y116811D01*
X46215D01*
X44549Y113479D02*
X43716D01*
Y114312D01*
X44549D01*
Y113479D01*
Y115978D02*
X43716D01*
Y116811D01*
X44549D01*
Y115978D01*
X40383Y117644D02*
X37051D01*
X35385Y114312D02*
X32053D01*
X33719Y112646D02*
Y115978D01*
X30387Y112646D02*
X29554Y111813D01*
X27888D01*
X27055Y112646D01*
Y115978D01*
X27888Y116811D01*
X29554D01*
X30387Y115978D01*
Y112646D01*
X25388Y116811D02*
Y115978D01*
X24555D01*
Y116811D01*
X25388D01*
X21223Y112646D02*
X20390Y111813D01*
X18724D01*
X17891Y112646D01*
Y115978D01*
X18724Y116811D01*
X20390D01*
X21223Y115978D01*
Y112646D01*
X12892Y111813D02*
X16225D01*
Y114312D01*
X14559Y113479D01*
X13725D01*
X12892Y114312D01*
Y115978D01*
X13725Y116811D01*
X15392D01*
X16225Y115978D01*
X11226Y116811D02*
X7894Y113479D01*
X6228Y114312D02*
X2896D01*
X1230Y112646D02*
X397Y111813D01*
X-1270D01*
X-2103Y112646D01*
Y115978D01*
X-1270Y116811D01*
X397D01*
X1230Y115978D01*
Y112646D01*
X-3769Y116811D02*
Y115978D01*
X-4602D01*
Y116811D01*
X-3769D01*
X-7934Y112646D02*
X-8767Y111813D01*
X-10433D01*
X-11266Y112646D01*
Y115978D01*
X-10433Y116811D01*
X-8767D01*
X-7934Y115978D01*
Y112646D01*
X-16265Y111813D02*
X-12933D01*
Y114312D01*
X-14599Y113479D01*
X-15432D01*
X-16265Y114312D01*
Y115978D01*
X-15432Y116811D01*
X-13766D01*
X-12933Y115978D01*
X181171Y106811D02*
Y101813D01*
X178672D01*
X177839Y102646D01*
Y104312D01*
X178672Y105145D01*
X181171D01*
X176173Y101813D02*
X172841D01*
X174507D01*
Y106811D01*
X171175Y101813D02*
Y106811D01*
Y104312D01*
X167842D01*
Y101813D01*
Y106811D01*
X166176Y107644D02*
X162844D01*
X161178Y101813D02*
Y106811D01*
X158678D01*
X157845Y105978D01*
Y102646D01*
X158678Y101813D01*
X161178D01*
X156179Y106811D02*
Y101813D01*
X153680D01*
X152847Y102646D01*
Y104312D01*
X153680Y105145D01*
X156179D01*
X154513D02*
X152847Y106811D01*
X151181Y101813D02*
X149515D01*
X150348D01*
Y106811D01*
X151181D01*
X149515D01*
X147016Y101813D02*
Y106811D01*
X143683D01*
X142017Y101813D02*
Y106811D01*
X138685D01*
X137019Y107644D02*
X133687D01*
X128688Y102646D02*
X129521Y101813D01*
X131187D01*
X132020Y102646D01*
Y103479D01*
X131187Y104312D01*
X129521D01*
X128688Y105145D01*
Y105978D01*
X129521Y106811D01*
X131187D01*
X132020Y105978D01*
X127022Y101813D02*
X125356D01*
X126189D01*
Y106811D01*
X127022D01*
X125356D01*
X122857Y101813D02*
X119525D01*
Y102646D01*
X122857Y105978D01*
Y106811D01*
X119525D01*
X114526Y101813D02*
X117858D01*
Y106811D01*
X114526D01*
X117858Y104312D02*
X116192D01*
X112860Y103479D02*
X112027D01*
Y104312D01*
X112860D01*
Y103479D01*
Y105978D02*
X112027D01*
Y106811D01*
X112860D01*
Y105978D01*
X108695Y107644D02*
X105362D01*
X103696Y106811D02*
X102030D01*
X102863D01*
Y101813D01*
X103696Y102646D01*
X99531Y106811D02*
Y105978D01*
X98698D01*
Y106811D01*
X99531D01*
X95366Y102646D02*
X94533Y101813D01*
X92866D01*
X92033Y102646D01*
Y105978D01*
X92866Y106811D01*
X94533D01*
X95366Y105978D01*
Y102646D01*
X87035Y106811D02*
X90367D01*
X87035Y103479D01*
Y102646D01*
X87868Y101813D01*
X89534D01*
X90367Y102646D01*
X85369Y107644D02*
X82037D01*
X80371Y106811D02*
Y101813D01*
X78704Y103479D01*
X77038Y101813D01*
Y106811D01*
X75372D02*
Y101813D01*
X73706Y103479D01*
X72040Y101813D01*
Y106811D01*
X69541Y107644D02*
X68708Y106811D01*
Y105978D01*
X69541D01*
Y106811D01*
X68708D01*
X69541Y107644D01*
X70374Y108477D01*
X65375Y107644D02*
X62043D01*
X60377Y101813D02*
X57045D01*
X58711D01*
Y106811D01*
X52880Y101813D02*
X54546D01*
X55379Y102646D01*
Y105978D01*
X54546Y106811D01*
X52880D01*
X52046Y105978D01*
Y102646D01*
X52880Y101813D01*
X50380D02*
Y106811D01*
X47048D01*
X45382Y103479D02*
X44549D01*
Y104312D01*
X45382D01*
Y103479D01*
Y105978D02*
X44549D01*
Y106811D01*
X45382D01*
Y105978D01*
X41217Y107644D02*
X37884D01*
X36218Y104312D02*
X32886D01*
X34552Y102646D02*
Y105978D01*
X31220Y102646D02*
X30387Y101813D01*
X28721D01*
X27888Y102646D01*
Y105978D01*
X28721Y106811D01*
X30387D01*
X31220Y105978D01*
Y102646D01*
X26221Y106811D02*
Y105978D01*
X25388D01*
Y106811D01*
X26221D01*
X22056Y102646D02*
X21223Y101813D01*
X19557D01*
X18724Y102646D01*
Y105978D01*
X19557Y106811D01*
X21223D01*
X22056Y105978D01*
Y102646D01*
X13725Y101813D02*
X17058D01*
Y104312D01*
X15392Y103479D01*
X14559D01*
X13725Y104312D01*
Y105978D01*
X14559Y106811D01*
X16225D01*
X17058Y105978D01*
X12059Y106811D02*
X8727Y103479D01*
X7061Y104312D02*
X3729D01*
X2063Y102646D02*
X1230Y101813D01*
X-437D01*
X-1270Y102646D01*
Y105978D01*
X-437Y106811D01*
X1230D01*
X2063Y105978D01*
Y102646D01*
X-2936Y106811D02*
Y105978D01*
X-3769D01*
Y106811D01*
X-2936D01*
X-7101Y102646D02*
X-7934Y101813D01*
X-9600D01*
X-10433Y102646D01*
Y105978D01*
X-9600Y106811D01*
X-7934D01*
X-7101Y105978D01*
Y102646D01*
X-15432Y101813D02*
X-12100D01*
Y104312D01*
X-13766Y103479D01*
X-14599D01*
X-15432Y104312D01*
Y105978D01*
X-14599Y106811D01*
X-12933D01*
X-12100Y105978D01*
X3868Y-20197D02*
Y-15199D01*
X6367D01*
X7200Y-16032D01*
Y-17698D01*
X6367Y-18531D01*
X3868D01*
X8867Y-15199D02*
X12199D01*
X10533D01*
Y-20197D01*
X13865Y-15199D02*
Y-20197D01*
Y-17698D01*
X17197D01*
Y-15199D01*
Y-20197D01*
X18863Y-21030D02*
X22196D01*
X23862Y-15199D02*
Y-20197D01*
X26361D01*
X27194Y-19364D01*
Y-16032D01*
X26361Y-15199D01*
X23862D01*
X28860Y-20197D02*
Y-15199D01*
X31359D01*
X32192Y-16032D01*
Y-17698D01*
X31359Y-18531D01*
X28860D01*
X30526D02*
X32192Y-20197D01*
X33858Y-15199D02*
X35524D01*
X34692D01*
Y-20197D01*
X33858D01*
X35524D01*
X38024Y-15199D02*
Y-20197D01*
X41356D01*
X43022Y-15199D02*
Y-20197D01*
X46354D01*
X48020Y-21030D02*
X51353D01*
X56351Y-16032D02*
X55518Y-15199D01*
X53852D01*
X53019Y-16032D01*
Y-16865D01*
X53852Y-17698D01*
X55518D01*
X56351Y-18531D01*
Y-19364D01*
X55518Y-20197D01*
X53852D01*
X53019Y-19364D01*
X58017Y-15199D02*
X59683D01*
X58850D01*
Y-20197D01*
X58017D01*
X59683D01*
X62183Y-15199D02*
X65515D01*
Y-16032D01*
X62183Y-19364D01*
Y-20197D01*
X65515D01*
X70513Y-15199D02*
X67181D01*
Y-20197D01*
X70513D01*
X67181Y-17698D02*
X68847D01*
X72179Y-16865D02*
X73012D01*
Y-17698D01*
X72179D01*
Y-16865D01*
Y-19364D02*
X73012D01*
Y-20197D01*
X72179D01*
Y-19364D01*
X76345Y-21030D02*
X79677D01*
X81343Y-20197D02*
X83009D01*
X82176D01*
Y-15199D01*
X81343Y-16032D01*
X85508Y-20197D02*
Y-19364D01*
X86341D01*
Y-20197D01*
X85508D01*
X89674Y-16032D02*
X90507Y-15199D01*
X92173D01*
X93006Y-16032D01*
Y-19364D01*
X92173Y-20197D01*
X90507D01*
X89674Y-19364D01*
Y-16032D01*
X98004Y-20197D02*
X94672D01*
X98004Y-16865D01*
Y-16032D01*
X97171Y-15199D01*
X95505D01*
X94672Y-16032D01*
X99670Y-21030D02*
X103003D01*
X104669Y-20197D02*
Y-15199D01*
X106335Y-16865D01*
X108001Y-15199D01*
Y-20197D01*
X109667D02*
Y-15199D01*
X111333Y-16865D01*
X112999Y-15199D01*
Y-20197D01*
X115499Y-21030D02*
X116332Y-20197D01*
Y-19364D01*
X115499D01*
Y-20197D01*
X116332D01*
X115499Y-21030D01*
X114666Y-21863D01*
X119664Y-21030D02*
X122996D01*
X124662Y-15199D02*
X127995D01*
X126328D01*
Y-20197D01*
X132160Y-15199D02*
X130494D01*
X129661Y-16032D01*
Y-19364D01*
X130494Y-20197D01*
X132160D01*
X132993Y-19364D01*
Y-16032D01*
X132160Y-15199D01*
X134659D02*
Y-20197D01*
X137991D01*
X139657Y-16865D02*
X140490D01*
Y-17698D01*
X139657D01*
Y-16865D01*
Y-19364D02*
X140490D01*
Y-20197D01*
X139657D01*
Y-19364D01*
X143823Y-21030D02*
X147155D01*
X148821Y-17698D02*
X152153D01*
X150487Y-16032D02*
Y-19364D01*
X153820Y-16032D02*
X154653Y-15199D01*
X156319D01*
X157152Y-16032D01*
Y-19364D01*
X156319Y-20197D01*
X154653D01*
X153820Y-19364D01*
Y-16032D01*
X158818Y-20197D02*
Y-19364D01*
X159651D01*
Y-20197D01*
X158818D01*
X162983Y-16032D02*
X163816Y-15199D01*
X165482D01*
X166315Y-16032D01*
Y-19364D01*
X165482Y-20197D01*
X163816D01*
X162983Y-19364D01*
Y-16032D01*
X171314Y-15199D02*
X167982D01*
Y-17698D01*
X169648Y-16865D01*
X170481D01*
X171314Y-17698D01*
Y-19364D01*
X170481Y-20197D01*
X168815D01*
X167982Y-19364D01*
X172980Y-20197D02*
X176312Y-16865D01*
X177978Y-17698D02*
X181311D01*
X182977Y-16032D02*
X183810Y-15199D01*
X185476D01*
X186309Y-16032D01*
Y-19364D01*
X185476Y-20197D01*
X183810D01*
X182977Y-19364D01*
Y-16032D01*
X187975Y-20197D02*
Y-19364D01*
X188808D01*
Y-20197D01*
X187975D01*
X192140Y-16032D02*
X192973Y-15199D01*
X194640D01*
X195473Y-16032D01*
Y-19364D01*
X194640Y-20197D01*
X192973D01*
X192140Y-19364D01*
Y-16032D01*
X200471Y-15199D02*
X197139D01*
Y-17698D01*
X198805Y-16865D01*
X199638D01*
X200471Y-17698D01*
Y-19364D01*
X199638Y-20197D01*
X197972D01*
X197139Y-19364D01*
X3868Y-30197D02*
Y-25199D01*
X7200Y-30197D01*
Y-25199D01*
X8867Y-30197D02*
Y-25199D01*
X11366D01*
X12199Y-26032D01*
Y-27698D01*
X11366Y-28531D01*
X8867D01*
X13865Y-25199D02*
X17197D01*
X15531D01*
Y-30197D01*
X18863Y-25199D02*
Y-30197D01*
Y-27698D01*
X22196D01*
Y-25199D01*
Y-30197D01*
X23862Y-31030D02*
X27194D01*
X28860Y-25199D02*
Y-30197D01*
X31359D01*
X32192Y-29364D01*
Y-26032D01*
X31359Y-25199D01*
X28860D01*
X33858Y-30197D02*
Y-25199D01*
X36358D01*
X37191Y-26032D01*
Y-27698D01*
X36358Y-28531D01*
X33858D01*
X35524D02*
X37191Y-30197D01*
X38857Y-25199D02*
X40523D01*
X39690D01*
Y-30197D01*
X38857D01*
X40523D01*
X43022Y-25199D02*
Y-30197D01*
X46354D01*
X48020Y-25199D02*
Y-30197D01*
X51353D01*
X53019Y-31030D02*
X56351D01*
X61349Y-26032D02*
X60516Y-25199D01*
X58850D01*
X58017Y-26032D01*
Y-26865D01*
X58850Y-27698D01*
X60516D01*
X61349Y-28531D01*
Y-29364D01*
X60516Y-30197D01*
X58850D01*
X58017Y-29364D01*
X63016Y-25199D02*
X64682D01*
X63849D01*
Y-30197D01*
X63016D01*
X64682D01*
X67181Y-25199D02*
X70513D01*
Y-26032D01*
X67181Y-29364D01*
Y-30197D01*
X70513D01*
X75512Y-25199D02*
X72179D01*
Y-30197D01*
X75512D01*
X72179Y-27698D02*
X73845D01*
X77178Y-26865D02*
X78011D01*
Y-27698D01*
X77178D01*
Y-26865D01*
Y-29364D02*
X78011D01*
Y-30197D01*
X77178D01*
Y-29364D01*
X81343Y-31030D02*
X84675D01*
X86341Y-26032D02*
X87174Y-25199D01*
X88841D01*
X89674Y-26032D01*
Y-26865D01*
X88841Y-27698D01*
X88007D01*
X88841D01*
X89674Y-28531D01*
Y-29364D01*
X88841Y-30197D01*
X87174D01*
X86341Y-29364D01*
X91340Y-30197D02*
Y-29364D01*
X92173D01*
Y-30197D01*
X91340D01*
X95505Y-26032D02*
X96338Y-25199D01*
X98004D01*
X98837Y-26032D01*
Y-29364D01*
X98004Y-30197D01*
X96338D01*
X95505Y-29364D01*
Y-26032D01*
X100504Y-31030D02*
X103836D01*
X105502Y-30197D02*
Y-25199D01*
X107168Y-26865D01*
X108834Y-25199D01*
Y-30197D01*
X110500D02*
Y-25199D01*
X112166Y-26865D01*
X113832Y-25199D01*
Y-30197D01*
X116332Y-31030D02*
X117165Y-30197D01*
Y-29364D01*
X116332D01*
Y-30197D01*
X117165D01*
X116332Y-31030D01*
X115499Y-31863D01*
X120497Y-31030D02*
X123829D01*
X125495Y-25199D02*
X128828D01*
X127162D01*
Y-30197D01*
X132993Y-25199D02*
X131327D01*
X130494Y-26032D01*
Y-29364D01*
X131327Y-30197D01*
X132993D01*
X133826Y-29364D01*
Y-26032D01*
X132993Y-25199D01*
X135492D02*
Y-30197D01*
X138824D01*
X140490Y-26865D02*
X141324D01*
Y-27698D01*
X140490D01*
Y-26865D01*
Y-29364D02*
X141324D01*
Y-30197D01*
X140490D01*
Y-29364D01*
X144656Y-31030D02*
X147988D01*
X149654Y-27698D02*
X152987D01*
X151320Y-26032D02*
Y-29364D01*
X154653Y-26032D02*
X155486Y-25199D01*
X157152D01*
X157985Y-26032D01*
Y-29364D01*
X157152Y-30197D01*
X155486D01*
X154653Y-29364D01*
Y-26032D01*
X159651Y-30197D02*
Y-29364D01*
X160484D01*
Y-30197D01*
X159651D01*
X163816Y-26032D02*
X164649Y-25199D01*
X166315D01*
X167149Y-26032D01*
Y-29364D01*
X166315Y-30197D01*
X164649D01*
X163816Y-29364D01*
Y-26032D01*
X172147Y-25199D02*
X168815D01*
Y-27698D01*
X170481Y-26865D01*
X171314D01*
X172147Y-27698D01*
Y-29364D01*
X171314Y-30197D01*
X169648D01*
X168815Y-29364D01*
X173813Y-30197D02*
X177145Y-26865D01*
X178811Y-27698D02*
X182144D01*
X183810Y-26032D02*
X184643Y-25199D01*
X186309D01*
X187142Y-26032D01*
Y-29364D01*
X186309Y-30197D01*
X184643D01*
X183810Y-29364D01*
Y-26032D01*
X188808Y-30197D02*
Y-29364D01*
X189641D01*
Y-30197D01*
X188808D01*
X192973Y-26032D02*
X193807Y-25199D01*
X195473D01*
X196306Y-26032D01*
Y-29364D01*
X195473Y-30197D01*
X193807D01*
X192973Y-29364D01*
Y-26032D01*
X201304Y-25199D02*
X197972D01*
Y-27698D01*
X199638Y-26865D01*
X200471D01*
X201304Y-27698D01*
Y-29364D01*
X200471Y-30197D01*
X198805D01*
X197972Y-29364D01*
X66860Y-20197D02*
Y-15199D01*
X69359D01*
X70192Y-16032D01*
Y-17698D01*
X69359Y-18531D01*
X66860D01*
X71859Y-15199D02*
X75191D01*
X73525D01*
Y-20197D01*
X76857Y-15199D02*
Y-20197D01*
Y-17698D01*
X80189D01*
Y-15199D01*
Y-20197D01*
X81855Y-21030D02*
X85188D01*
X86854Y-15199D02*
Y-20197D01*
X89353D01*
X90186Y-19364D01*
Y-16032D01*
X89353Y-15199D01*
X86854D01*
X91852Y-20197D02*
Y-15199D01*
X94351D01*
X95184Y-16032D01*
Y-17698D01*
X94351Y-18531D01*
X91852D01*
X93518D02*
X95184Y-20197D01*
X96851Y-15199D02*
X98517D01*
X97684D01*
Y-20197D01*
X96851D01*
X98517D01*
X101016Y-15199D02*
Y-20197D01*
X104348D01*
X106014Y-15199D02*
Y-20197D01*
X109346D01*
X111013Y-21030D02*
X114345D01*
X119343Y-16032D02*
X118510Y-15199D01*
X116844D01*
X116011Y-16032D01*
Y-16865D01*
X116844Y-17698D01*
X118510D01*
X119343Y-18531D01*
Y-19364D01*
X118510Y-20197D01*
X116844D01*
X116011Y-19364D01*
X121009Y-15199D02*
X122676D01*
X121842D01*
Y-20197D01*
X121009D01*
X122676D01*
X125175Y-15199D02*
X128507D01*
Y-16032D01*
X125175Y-19364D01*
Y-20197D01*
X128507D01*
X133505Y-15199D02*
X130173D01*
Y-20197D01*
X133505D01*
X130173Y-17698D02*
X131839D01*
X135171Y-16865D02*
X136004D01*
Y-17698D01*
X135171D01*
Y-16865D01*
Y-19364D02*
X136004D01*
Y-20197D01*
X135171D01*
Y-19364D01*
X139337Y-21030D02*
X142669D01*
X144335Y-20197D02*
X146001D01*
X145168D01*
Y-15199D01*
X144335Y-16032D01*
X148501Y-20197D02*
Y-19364D01*
X149334D01*
Y-20197D01*
X148501D01*
X152666Y-16032D02*
X153499Y-15199D01*
X155165D01*
X155998Y-16032D01*
Y-19364D01*
X155165Y-20197D01*
X153499D01*
X152666Y-19364D01*
Y-16032D01*
X160996Y-20197D02*
X157664D01*
X160996Y-16865D01*
Y-16032D01*
X160163Y-15199D01*
X158497D01*
X157664Y-16032D01*
X162662Y-21030D02*
X165995D01*
X167661Y-20197D02*
Y-15199D01*
X169327Y-16865D01*
X170993Y-15199D01*
Y-20197D01*
X172659D02*
Y-15199D01*
X174325Y-16865D01*
X175992Y-15199D01*
Y-20197D01*
X178491Y-21030D02*
X179324Y-20197D01*
Y-19364D01*
X178491D01*
Y-20197D01*
X179324D01*
X178491Y-21030D01*
X177658Y-21863D01*
X182656Y-21030D02*
X185988D01*
X187654Y-15199D02*
X190987D01*
X189321D01*
Y-20197D01*
X195152Y-15199D02*
X193486D01*
X192653Y-16032D01*
Y-19364D01*
X193486Y-20197D01*
X195152D01*
X195985Y-19364D01*
Y-16032D01*
X195152Y-15199D01*
X197651D02*
Y-20197D01*
X200984D01*
X202650Y-16865D02*
X203483D01*
Y-17698D01*
X202650D01*
Y-16865D01*
Y-19364D02*
X203483D01*
Y-20197D01*
X202650D01*
Y-19364D01*
X206815Y-21030D02*
X210147D01*
X211813Y-17698D02*
X215145D01*
X213479Y-16032D02*
Y-19364D01*
X216812Y-16032D02*
X217645Y-15199D01*
X219311D01*
X220144Y-16032D01*
Y-19364D01*
X219311Y-20197D01*
X217645D01*
X216812Y-19364D01*
Y-16032D01*
X221810Y-20197D02*
Y-19364D01*
X222643D01*
Y-20197D01*
X221810D01*
X225975Y-16032D02*
X226808Y-15199D01*
X228474D01*
X229308Y-16032D01*
Y-19364D01*
X228474Y-20197D01*
X226808D01*
X225975Y-19364D01*
Y-16032D01*
X234306Y-15199D02*
X230974D01*
Y-17698D01*
X232640Y-16865D01*
X233473D01*
X234306Y-17698D01*
Y-19364D01*
X233473Y-20197D01*
X231807D01*
X230974Y-19364D01*
X235972Y-20197D02*
X239304Y-16865D01*
X240970Y-17698D02*
X244303D01*
X245969Y-16032D02*
X246802Y-15199D01*
X248468D01*
X249301Y-16032D01*
Y-19364D01*
X248468Y-20197D01*
X246802D01*
X245969Y-19364D01*
Y-16032D01*
X250967Y-20197D02*
Y-19364D01*
X251800D01*
Y-20197D01*
X250967D01*
X255133Y-16032D02*
X255966Y-15199D01*
X257632D01*
X258465Y-16032D01*
Y-19364D01*
X257632Y-20197D01*
X255966D01*
X255133Y-19364D01*
Y-16032D01*
X263463Y-15199D02*
X260131D01*
Y-17698D01*
X261797Y-16865D01*
X262630D01*
X263463Y-17698D01*
Y-19364D01*
X262630Y-20197D01*
X260964D01*
X260131Y-19364D01*
X66860Y-30197D02*
Y-25199D01*
X70192Y-30197D01*
Y-25199D01*
X71859Y-30197D02*
Y-25199D01*
X74358D01*
X75191Y-26032D01*
Y-27698D01*
X74358Y-28531D01*
X71859D01*
X76857Y-25199D02*
X80189D01*
X78523D01*
Y-30197D01*
X81855Y-25199D02*
Y-30197D01*
Y-27698D01*
X85188D01*
Y-25199D01*
Y-30197D01*
X86854Y-31030D02*
X90186D01*
X91852Y-25199D02*
Y-30197D01*
X94351D01*
X95184Y-29364D01*
Y-26032D01*
X94351Y-25199D01*
X91852D01*
X96851Y-30197D02*
Y-25199D01*
X99350D01*
X100183Y-26032D01*
Y-27698D01*
X99350Y-28531D01*
X96851D01*
X98517D02*
X100183Y-30197D01*
X101849Y-25199D02*
X103515D01*
X102682D01*
Y-30197D01*
X101849D01*
X103515D01*
X106014Y-25199D02*
Y-30197D01*
X109346D01*
X111013Y-25199D02*
Y-30197D01*
X114345D01*
X116011Y-31030D02*
X119343D01*
X124342Y-26032D02*
X123509Y-25199D01*
X121842D01*
X121009Y-26032D01*
Y-26865D01*
X121842Y-27698D01*
X123509D01*
X124342Y-28531D01*
Y-29364D01*
X123509Y-30197D01*
X121842D01*
X121009Y-29364D01*
X126008Y-25199D02*
X127674D01*
X126841D01*
Y-30197D01*
X126008D01*
X127674D01*
X130173Y-25199D02*
X133505D01*
Y-26032D01*
X130173Y-29364D01*
Y-30197D01*
X133505D01*
X138504Y-25199D02*
X135171D01*
Y-30197D01*
X138504D01*
X135171Y-27698D02*
X136838D01*
X140170Y-26865D02*
X141003D01*
Y-27698D01*
X140170D01*
Y-26865D01*
Y-29364D02*
X141003D01*
Y-30197D01*
X140170D01*
Y-29364D01*
X144335Y-31030D02*
X147667D01*
X149334Y-26032D02*
X150167Y-25199D01*
X151833D01*
X152666Y-26032D01*
Y-26865D01*
X151833Y-27698D01*
X151000D01*
X151833D01*
X152666Y-28531D01*
Y-29364D01*
X151833Y-30197D01*
X150167D01*
X149334Y-29364D01*
X154332Y-30197D02*
Y-29364D01*
X155165D01*
Y-30197D01*
X154332D01*
X158497Y-26032D02*
X159330Y-25199D01*
X160996D01*
X161829Y-26032D01*
Y-29364D01*
X160996Y-30197D01*
X159330D01*
X158497Y-29364D01*
Y-26032D01*
X163496Y-31030D02*
X166828D01*
X168494Y-30197D02*
Y-25199D01*
X170160Y-26865D01*
X171826Y-25199D01*
Y-30197D01*
X173492D02*
Y-25199D01*
X175159Y-26865D01*
X176825Y-25199D01*
Y-30197D01*
X179324Y-31030D02*
X180157Y-30197D01*
Y-29364D01*
X179324D01*
Y-30197D01*
X180157D01*
X179324Y-31030D01*
X178491Y-31863D01*
X183489Y-31030D02*
X186821D01*
X188488Y-25199D02*
X191820D01*
X190154D01*
Y-30197D01*
X195985Y-25199D02*
X194319D01*
X193486Y-26032D01*
Y-29364D01*
X194319Y-30197D01*
X195985D01*
X196818Y-29364D01*
Y-26032D01*
X195985Y-25199D01*
X198484D02*
Y-30197D01*
X201817D01*
X203483Y-26865D02*
X204316D01*
Y-27698D01*
X203483D01*
Y-26865D01*
Y-29364D02*
X204316D01*
Y-30197D01*
X203483D01*
Y-29364D01*
X207648Y-31030D02*
X210980D01*
X212646Y-27698D02*
X215979D01*
X214313Y-26032D02*
Y-29364D01*
X217645Y-26032D02*
X218478Y-25199D01*
X220144D01*
X220977Y-26032D01*
Y-29364D01*
X220144Y-30197D01*
X218478D01*
X217645Y-29364D01*
Y-26032D01*
X222643Y-30197D02*
Y-29364D01*
X223476D01*
Y-30197D01*
X222643D01*
X226808Y-26032D02*
X227642Y-25199D01*
X229308D01*
X230141Y-26032D01*
Y-29364D01*
X229308Y-30197D01*
X227642D01*
X226808Y-29364D01*
Y-26032D01*
X235139Y-25199D02*
X231807D01*
Y-27698D01*
X233473Y-26865D01*
X234306D01*
X235139Y-27698D01*
Y-29364D01*
X234306Y-30197D01*
X232640D01*
X231807Y-29364D01*
X236805Y-30197D02*
X240137Y-26865D01*
X241804Y-27698D02*
X245136D01*
X246802Y-26032D02*
X247635Y-25199D01*
X249301D01*
X250134Y-26032D01*
Y-29364D01*
X249301Y-30197D01*
X247635D01*
X246802Y-29364D01*
Y-26032D01*
X251800Y-30197D02*
Y-29364D01*
X252633D01*
Y-30197D01*
X251800D01*
X255966Y-26032D02*
X256799Y-25199D01*
X258465D01*
X259298Y-26032D01*
Y-29364D01*
X258465Y-30197D01*
X256799D01*
X255966Y-29364D01*
Y-26032D01*
X264296Y-25199D02*
X260964D01*
Y-27698D01*
X262630Y-26865D01*
X263463D01*
X264296Y-27698D01*
Y-29364D01*
X263463Y-30197D01*
X261797D01*
X260964Y-29364D01*
M02*
