G04*
G04 #@! TF.GenerationSoftware,Altium Limited,Altium Designer,21.9.2 (33)*
G04*
G04 Layer_Color=65535*
%FSLAX25Y25*%
%MOIN*%
G70*
G04*
G04 #@! TF.SameCoordinates,6F936C73-BDDA-4E7B-AE90-99827B4021A3*
G04*
G04*
G04 #@! TF.FilePolarity,Positive*
G04*
G01*
G75*
%ADD10C,0.00600*%
%ADD11C,0.00787*%
%ADD12C,0.00300*%
D10*
X52400Y46305D02*
Y71805D01*
X24600Y46305D02*
X26240D01*
X24600D02*
Y71805D01*
X35750D01*
Y75805D01*
X41250D01*
Y71805D02*
Y75805D01*
Y71805D02*
X52400D01*
X50760Y46305D02*
X52400D01*
X79260D02*
X80900D01*
X69750Y71805D02*
X80900D01*
X69750D02*
Y75805D01*
X64250D02*
X69750D01*
X64250Y71805D02*
Y75805D01*
X53100Y71805D02*
X64250D01*
X53100Y46305D02*
Y71805D01*
Y46305D02*
X54740D01*
X80900D02*
Y71805D01*
X149401Y47323D02*
X157685D01*
X137590D02*
X145874D01*
X125779D02*
X134063D01*
X113968D02*
X122252D01*
X104287D02*
X110441D01*
X87323D02*
X96500D01*
X87323D02*
Y84500D01*
X24311Y39291D02*
X35638D01*
X24311Y2000D02*
Y39291D01*
X85925Y2000D02*
Y39291D01*
X76728D02*
X85925D01*
X62787D02*
X68941D01*
X50976D02*
X59260D01*
X39165D02*
X47449D01*
X87303D02*
X98630D01*
X87303Y2000D02*
Y39291D01*
X148917Y1500D02*
Y39291D01*
X139720D02*
X148917D01*
X125779D02*
X131933D01*
X113968D02*
X122252D01*
X102157D02*
X110441D01*
X14099Y31957D02*
X15256D01*
X8744D02*
Y40043D01*
Y31957D02*
X9901D01*
X15256D02*
Y40043D01*
X14099D02*
X15256D01*
X8744D02*
X9901D01*
X5999Y56700D02*
X12899D01*
X6898Y36742D02*
Y38258D01*
X152650Y28661D02*
Y33339D01*
X159350Y28661D02*
Y33339D01*
X22571Y45957D02*
X23728D01*
X17217D02*
X18373D01*
X17217D02*
Y54043D01*
X22571D02*
X23728D01*
Y45957D02*
Y54043D01*
X17217D02*
X18373D01*
D11*
X17350Y34043D02*
Y35618D01*
X20106Y34043D02*
Y35618D01*
X18213Y25622D02*
X19787D01*
X18213Y28378D02*
X19787D01*
X165213Y37878D02*
X166787D01*
X165213Y35122D02*
X166787D01*
X38500Y78293D02*
Y80917D01*
X37844Y81573D01*
X36532D01*
X35876Y80917D01*
Y78293D01*
X36532Y77637D01*
X37844D01*
X37188Y78949D02*
X38500Y77637D01*
X37844D02*
X38500Y78293D01*
X39812Y77637D02*
X41124D01*
X40468D01*
Y81573D01*
X39812Y80917D01*
X66344Y78243D02*
Y80867D01*
X65688Y81523D01*
X64376D01*
X63720Y80867D01*
Y78243D01*
X64376Y77587D01*
X65688D01*
X65032Y78899D02*
X66344Y77587D01*
X65688D02*
X66344Y78243D01*
X70280Y77587D02*
X67656D01*
X70280Y80211D01*
Y80867D01*
X69624Y81523D01*
X68312D01*
X67656Y80867D01*
X140787Y41287D02*
X142099D01*
X141443D01*
Y45223D01*
X140787Y44567D01*
X83787Y41287D02*
X85099D01*
X84443D01*
Y45223D01*
X83787Y44567D01*
X84287Y51287D02*
X85599D01*
X84943D01*
Y55223D01*
X84287Y54567D01*
X154344Y44968D02*
X153032D01*
X153688D01*
Y41688D01*
X153032Y41032D01*
X152376D01*
X151720Y41688D01*
X155656Y44312D02*
X156312Y44968D01*
X157624D01*
X158280Y44312D01*
Y43656D01*
X157624Y43000D01*
X156968D01*
X157624D01*
X158280Y42344D01*
Y41688D01*
X157624Y41032D01*
X156312D01*
X155656Y41688D01*
X18344Y6468D02*
X17032D01*
X17688D01*
Y3188D01*
X17032Y2532D01*
X16376D01*
X15720Y3188D01*
X22280Y2532D02*
X19656D01*
X22280Y5156D01*
Y5812D01*
X21624Y6468D01*
X20312D01*
X19656Y5812D01*
X156000Y23312D02*
X155344Y23968D01*
X154032D01*
X153376Y23312D01*
Y20688D01*
X154032Y20032D01*
X155344D01*
X156000Y20688D01*
X157312Y20032D02*
X158624D01*
X157968D01*
Y23968D01*
X157312Y23312D01*
X2876Y65968D02*
Y62688D01*
X3532Y62032D01*
X4844D01*
X5500Y62688D01*
Y65968D01*
X6812Y62032D02*
X8124D01*
X7468D01*
Y65968D01*
X6812Y65312D01*
X13968Y58720D02*
X10032D01*
Y60688D01*
X10688Y61344D01*
X12000D01*
X12656Y60688D01*
Y58720D01*
Y60032D02*
X13968Y61344D01*
X10688Y62656D02*
X10032Y63312D01*
Y64624D01*
X10688Y65280D01*
X11344D01*
X12000Y64624D01*
Y63968D01*
Y64624D01*
X12656Y65280D01*
X13312D01*
X13968Y64624D01*
Y63312D01*
X13312Y62656D01*
X22468Y16220D02*
X18532D01*
Y18188D01*
X19188Y18844D01*
X20500D01*
X21156Y18188D01*
Y16220D01*
Y17532D02*
X22468Y18844D01*
Y22780D02*
Y20156D01*
X19844Y22780D01*
X19188D01*
X18532Y22124D01*
Y20812D01*
X19188Y20156D01*
X164376Y28532D02*
Y32468D01*
X166344D01*
X167000Y31812D01*
Y30500D01*
X166344Y29844D01*
X164376D01*
X165688D02*
X167000Y28532D01*
X168312D02*
X169624D01*
X168968D01*
Y32468D01*
X168312Y31812D01*
X153500Y6468D02*
X152188D01*
X152844D01*
Y3188D01*
X152188Y2532D01*
X151532D01*
X150876Y3188D01*
X154812Y2532D02*
X156124D01*
X155468D01*
Y6468D01*
X154812Y5812D01*
X8032Y21720D02*
X11968D01*
Y23688D01*
X11312Y24344D01*
X8688D01*
X8032Y23688D01*
Y21720D01*
X11968Y28280D02*
Y25656D01*
X9344Y28280D01*
X8688D01*
X8032Y27624D01*
Y26312D01*
X8688Y25656D01*
X17376Y62468D02*
Y58532D01*
X19344D01*
X20000Y59188D01*
Y61812D01*
X19344Y62468D01*
X17376D01*
X21312Y58532D02*
X22624D01*
X21968D01*
Y62468D01*
X21312Y61812D01*
X2688Y24344D02*
X2032Y23688D01*
Y22376D01*
X2688Y21720D01*
X5312D01*
X5968Y22376D01*
Y23688D01*
X5312Y24344D01*
X5968Y28280D02*
Y25656D01*
X3344Y28280D01*
X2688D01*
X2032Y27624D01*
Y26312D01*
X2688Y25656D01*
D12*
X53500Y80940D02*
X50168Y84272D01*
X53500D02*
X50168Y80940D01*
X53500Y82606D02*
X50168D01*
X51834Y84272D02*
Y80940D01*
X82000Y80890D02*
X78668Y84222D01*
X82000D02*
X78668Y80890D01*
X82000Y82556D02*
X78668D01*
X80334Y84222D02*
Y80890D01*
X17665Y45000D02*
X14333Y41668D01*
Y45000D02*
X17665Y41668D01*
X15999Y45000D02*
Y41668D01*
X14333Y43334D02*
X17665D01*
X1500Y60165D02*
X4832Y56833D01*
X1500D02*
X4832Y60165D01*
X1500Y58499D02*
X4832D01*
X3166Y56833D02*
Y60165D01*
X22335Y41000D02*
X25667Y44332D01*
Y41000D02*
X22335Y44332D01*
X24001Y41000D02*
Y44332D01*
X25667Y42666D02*
X22335D01*
M02*
